# xmcd CD database file
#
# Track frame offsets:
#	182
#	20802
#	43332
#	67567
#	90650
#	109540
#	127907
#	154787
#	176130
#
# Disc length: 2520 seconds
#
# Revision: 1
# Processed by: cddbd v1.5.1PL0 Copyright (c) Steve Scherf et al.
# Submitted via: CDex 1.51
#
DISCID=6d09d609
DTITLE=Bill Coleman - Really I Do
DYEAR=1990
DGENRE=Jazz
TTITLE0=Crazy Rhythm
TTITLE1=You've Changed
TTITLE2=Tinto Time
TTITLE3=On The Trail
TTITLE4=Hello Babe
TTITLE5=Really I Do
TTITLE6=She's Funny That Way
TTITLE7=I've Got My Love To Keep Me Warm
TTITLE8=Montreux Jump
EXTD=YEAR: 1990
EXTT0=
EXTT1=
EXTT2=
EXTT3=
EXTT4=
EXTT5=
EXTT6=
EXTT7=
EXTT8=
PLAYORDER=
